<svg xmlns="http://www.w3.org/2000/svg" xmlns:xlink="http://www.w3.org/1999/xlink" viewBox="0 0 100 100"><defs><style>.cls-1{fill:#0871b8;}</style></defs><g id="Warstwa_5" data-name="Warstwa 5"><image width="100" height="100" transform="translate(93.83 -97.8)" xlink:href="../../../Desktop/FB_Icon.png"/></g><g id="Warstwa_6" data-name="Warstwa 6"><path class="cls-1" d="M90.55,50A40.54,40.54,0,0,1,55.1,90.22V60.91H66c1.84-4,1.42-10.76,1.42-10.76H55.38V40.92c0-5.52,4.68-5.24,4.68-5.24h7.37V26.47H56a9.79,9.79,0,0,0-4.51,1.07c-.41.21-.8.43-1.17.65A14.72,14.72,0,0,0,43.42,40.8v9.35H34V61.34h9.44V90A40.55,40.55,0,1,1,90.55,50Z"/></g></svg>