<svg id="Warstwa_3" data-name="Warstwa 3" xmlns="http://www.w3.org/2000/svg" viewBox="0 0 1491.86 1237.4"><defs><style>.cls-1{fill:#fff;}</style></defs><polygon class="cls-1" points="867.56 1113.06 1023.16 1237.4 506.86 1237.4 506.86 993.66 718.13 993.66 776.19 1040.05 867.56 1113.06"/><polygon class="cls-1" points="1069.6 1237.4 1046.1 1237.4 890.5 1113.06 799.13 1040.05 741.07 993.66 764.57 993.66 822.63 1040.05 914 1113.06 1069.6 1237.4"/><polygon class="cls-1" points="1116.62 1237.4 1093.12 1237.4 937.51 1113.06 846.14 1040.05 788.09 993.66 811.59 993.66 869.64 1040.05 961.02 1113.06 1116.62 1237.4"/><polygon class="cls-1" points="1163.63 1237.4 1140.13 1237.4 984.53 1113.06 893.15 1040.05 835.1 993.66 858.6 993.66 916.65 1040.05 1008.03 1113.06 1163.63 1237.4"/><polygon class="cls-1" points="1210.64 1237.4 1187.14 1237.4 1031.54 1113.06 940.17 1040.05 882.11 993.66 905.61 993.66 963.67 1040.05 1055.04 1113.06 1210.64 1237.4"/><polygon class="cls-1" points="1257.67 1237.4 1234.17 1237.4 1078.57 1113.06 987.19 1040.05 929.14 993.66 952.64 993.66 1010.69 1040.05 1102.07 1113.06 1257.67 1237.4"/><polygon class="cls-1" points="1304.68 1237.4 1281.17 1237.4 1125.57 1113.06 1034.19 1040.05 976.14 993.66 999.65 993.66 1057.71 1040.05 1149.08 1113.06 1304.68 1237.4"/><polygon class="cls-1" points="1351.7 1237.4 1328.2 1237.4 1172.6 1113.06 1081.22 1040.05 1023.16 993.66 1046.67 993.66 1104.72 1040.05 1196.1 1113.06 1351.7 1237.4"/><polygon class="cls-1" points="1398.71 1237.4 1375.21 1237.4 1219.61 1113.06 1128.23 1040.05 1070.18 993.66 1093.68 993.66 1151.73 1040.05 1243.11 1113.06 1398.71 1237.4"/><polygon class="cls-1" points="1398.71 1237.4 1375.21 1237.4 1219.61 1113.06 1128.23 1040.05 1070.18 993.66 1045.94 974.3 506.86 543.57 506.86 524.78 1069.44 974.3 1093.68 993.66 1151.73 1040.05 1243.11 1113.06 1398.71 1237.4"/><polygon class="cls-1" points="42.24 21.2 42.24 1014.86 0 993.66 0 0 42.24 21.2"/><polygon class="cls-1" points="105.6 52.98 105.6 1046.65 63.36 1025.45 63.36 31.79 105.6 52.98"/><polygon class="cls-1" points="168.95 84.77 168.95 1078.43 126.72 1057.25 126.72 63.59 145.72 73.12 168.95 84.77"/><polygon class="cls-1" points="232.31 116.57 232.31 1110.23 190.07 1089.04 190.07 95.38 232.31 116.57"/><polygon class="cls-1" points="295.67 148.36 295.67 1142.02 253.43 1120.83 253.43 127.16 295.67 148.36"/><polygon class="cls-1" points="359.03 180.15 359.03 1173.81 316.79 1152.62 316.79 158.96 359.03 180.15"/><polygon class="cls-1" points="422.38 211.95 422.38 1205.61 380.14 1184.41 380.14 190.75 422.38 211.95"/><polygon class="cls-1" points="485.74 243.74 485.74 1237.4 443.5 1216.2 443.5 222.54 485.74 243.74"/><polygon class="cls-1" points="1491.86 243.74 816.44 748.89 506.66 501.4 851.16 243.74 1491.86 243.74"/><polygon class="cls-1" points="1069.6 1237.4 1046.1 1237.4 890.5 1113.06 799.13 1040.05 741.07 993.66 716.83 974.3 506.86 806.53 506.86 787.76 740.33 974.3 764.57 993.66 822.63 1040.05 914 1113.06 1069.6 1237.4"/><polygon class="cls-1" points="1116.62 1237.4 1093.12 1237.4 937.51 1113.06 846.14 1040.05 788.09 993.66 763.85 974.3 506.86 768.96 506.86 750.18 787.35 974.3 811.59 993.66 869.64 1040.05 961.02 1113.06 1116.62 1237.4"/><polygon class="cls-1" points="1163.63 1237.4 1140.13 1237.4 984.53 1113.06 893.15 1040.05 835.1 993.66 810.86 974.3 506.86 731.4 506.86 712.62 834.36 974.3 858.6 993.66 916.65 1040.05 1008.03 1113.06 1163.63 1237.4"/><polygon class="cls-1" points="1210.64 1237.4 1187.14 1237.4 1031.54 1113.06 940.17 1040.05 882.11 993.66 857.87 974.3 506.86 693.83 506.86 675.05 881.37 974.3 905.61 993.66 963.67 1040.05 1055.04 1113.06 1210.64 1237.4"/><polygon class="cls-1" points="1257.67 1237.4 1234.17 1237.4 1078.57 1113.06 987.19 1040.05 929.14 993.66 904.9 974.3 506.86 656.26 506.86 637.48 928.4 974.3 952.64 993.66 1010.69 1040.05 1102.07 1113.06 1257.67 1237.4"/><polygon class="cls-1" points="1351.7 1237.4 1328.2 1237.4 1172.6 1113.06 1081.22 1040.05 1023.16 993.66 998.92 974.3 506.86 581.13 506.86 562.35 1022.43 974.3 1046.67 993.66 1104.72 1040.05 1196.1 1113.06 1351.7 1237.4"/><polygon class="cls-1" points="1304.68 1237.4 1281.17 1237.4 1125.57 1113.06 1034.19 1040.05 976.14 993.66 951.9 974.3 506.86 618.7 506.86 599.92 975.41 974.3 999.65 993.66 1057.71 1040.05 1149.08 1113.06 1304.68 1237.4"/></svg>