<svg id="Warstwa_3" data-name="Warstwa 3" xmlns="http://www.w3.org/2000/svg" viewBox="0 0 1235.14 1237.4"><defs><style>.cls-1{fill:#fff;}</style></defs><polygon class="cls-1" points="718.27 1113.06 847.1 1237.4 419.64 1237.4 419.64 993.66 594.56 993.66 642.62 1040.05 718.27 1113.06"/><polygon class="cls-1" points="885.55 1237.4 866.09 1237.4 737.26 1113.06 661.61 1040.05 613.55 993.66 633.01 993.66 681.07 1040.05 756.72 1113.06 885.55 1237.4"/><polygon class="cls-1" points="924.47 1237.4 905.01 1237.4 776.19 1113.06 700.54 1040.05 652.47 993.66 671.93 993.66 719.99 1040.05 795.64 1113.06 924.47 1237.4"/><polygon class="cls-1" points="963.39 1237.4 943.94 1237.4 815.11 1113.06 739.46 1040.05 691.4 993.66 710.85 993.66 758.92 1040.05 834.57 1113.06 963.39 1237.4"/><polygon class="cls-1" points="1002.32 1237.4 982.86 1237.4 854.03 1113.06 778.38 1040.05 730.32 993.66 749.78 993.66 797.84 1040.05 873.49 1113.06 1002.32 1237.4"/><polygon class="cls-1" points="1041.25 1237.4 1021.79 1237.4 892.97 1113.06 817.32 1040.05 769.25 993.66 788.71 993.66 836.77 1040.05 912.43 1113.06 1041.25 1237.4"/><polygon class="cls-1" points="1080.17 1237.4 1060.71 1237.4 931.88 1113.06 856.23 1040.05 808.17 993.66 827.63 993.66 875.7 1040.05 951.35 1113.06 1080.17 1237.4"/><polygon class="cls-1" points="1119.1 1237.4 1099.64 1237.4 970.82 1113.06 895.16 1040.05 847.1 993.66 866.56 993.66 914.62 1040.05 990.27 1113.06 1119.1 1237.4"/><polygon class="cls-1" points="1158.02 1237.4 1138.57 1237.4 1009.74 1113.06 934.09 1040.05 886.02 993.66 905.48 993.66 953.54 1040.05 1029.2 1113.06 1158.02 1237.4"/><polygon class="cls-1" points="1158.02 1237.4 1138.57 1237.4 1009.74 1113.06 934.09 1040.05 886.02 993.66 865.95 974.3 419.64 543.57 419.64 524.78 885.41 974.3 905.48 993.66 953.54 1040.05 1029.2 1113.06 1158.02 1237.4"/><polygon class="cls-1" points="34.97 21.2 34.97 1014.86 0 993.66 0 0 34.97 21.2"/><polygon class="cls-1" points="87.42 52.98 87.42 1046.65 52.45 1025.45 52.45 31.79 87.42 52.98"/><polygon class="cls-1" points="139.88 84.77 139.88 1078.43 104.91 1057.25 104.91 63.59 120.65 73.12 139.88 84.77"/><polygon class="cls-1" points="192.34 116.57 192.34 1110.23 157.37 1089.04 157.37 95.38 192.34 116.57"/><polygon class="cls-1" points="244.79 148.36 244.79 1142.02 209.82 1120.83 209.82 127.16 244.79 148.36"/><polygon class="cls-1" points="297.25 180.15 297.25 1173.81 262.27 1152.62 262.27 158.96 297.25 180.15"/><polygon class="cls-1" points="349.7 211.95 349.7 1205.61 314.73 1184.41 314.73 190.75 349.7 211.95"/><polygon class="cls-1" points="402.15 243.74 402.15 1237.4 367.19 1216.2 367.19 222.54 402.15 243.74"/><polygon class="cls-1" points="1235.14 243.74 675.95 748.89 419.48 501.4 704.69 243.74 1235.14 243.74"/><polygon class="cls-1" points="885.55 1237.4 866.09 1237.4 737.26 1113.06 661.61 1040.05 613.55 993.66 593.48 974.3 419.64 806.53 419.64 787.76 612.94 974.3 633.01 993.66 681.07 1040.05 756.72 1113.06 885.55 1237.4"/><polygon class="cls-1" points="924.47 1237.4 905.01 1237.4 776.19 1113.06 700.54 1040.05 652.47 993.66 632.4 974.3 419.64 768.96 419.64 750.18 651.86 974.3 671.93 993.66 719.99 1040.05 795.64 1113.06 924.47 1237.4"/><polygon class="cls-1" points="963.39 1237.4 943.94 1237.4 815.11 1113.06 739.46 1040.05 691.4 993.66 671.33 974.3 419.64 731.4 419.64 712.62 690.78 974.3 710.85 993.66 758.92 1040.05 834.57 1113.06 963.39 1237.4"/><polygon class="cls-1" points="1002.32 1237.4 982.86 1237.4 854.03 1113.06 778.38 1040.05 730.32 993.66 710.25 974.3 419.64 693.83 419.64 675.05 729.71 974.3 749.78 993.66 797.84 1040.05 873.49 1113.06 1002.32 1237.4"/><polygon class="cls-1" points="1041.25 1237.4 1021.79 1237.4 892.97 1113.06 817.32 1040.05 769.25 993.66 749.18 974.3 419.64 656.26 419.64 637.48 768.64 974.3 788.71 993.66 836.77 1040.05 912.43 1113.06 1041.25 1237.4"/><polygon class="cls-1" points="1119.1 1237.4 1099.64 1237.4 970.82 1113.06 895.16 1040.05 847.1 993.66 827.03 974.3 419.64 581.13 419.64 562.35 846.49 974.3 866.56 993.66 914.62 1040.05 990.27 1113.06 1119.1 1237.4"/><polygon class="cls-1" points="1080.17 1237.4 1060.71 1237.4 931.88 1113.06 856.23 1040.05 808.17 993.66 788.1 974.3 419.64 618.7 419.64 599.92 807.56 974.3 827.63 993.66 875.7 1040.05 951.35 1113.06 1080.17 1237.4"/></svg>