<svg id="Warstwa_1" data-name="Warstwa 1" xmlns="http://www.w3.org/2000/svg" viewBox="0 0 170 170"><defs><style>.cls-1{fill:#fff;}</style></defs><polygon class="cls-1" points="125.8 106.04 132.88 111.33 109.38 111.33 109.38 100.96 119 100.96 121.64 102.93 125.8 106.04"/><polygon class="cls-1" points="149.97 111.33 148.9 111.33 109.38 81.8 109.38 81 149.97 111.33"/><polygon class="cls-1" points="88.24 59.58 88.24 101.86 86.32 100.96 86.32 58.67 88.24 59.58"/><polygon class="cls-1" points="91.12 60.93 91.12 103.21 89.2 102.31 89.2 60.02 91.12 60.93"/><polygon class="cls-1" points="94 62.28 94 104.56 92.08 103.66 92.08 61.38 92.95 61.78 94 62.28"/><polygon class="cls-1" points="96.89 63.63 96.89 105.92 94.97 105.01 94.97 62.73 96.89 63.63"/><polygon class="cls-1" points="99.77 64.99 99.77 107.27 97.85 106.37 97.85 64.08 99.77 64.99"/><polygon class="cls-1" points="102.66 66.34 102.66 108.62 100.73 107.72 100.73 65.44 102.66 66.34"/><polygon class="cls-1" points="105.54 67.69 105.54 109.97 103.62 109.07 103.62 66.79 105.54 67.69"/><polygon class="cls-1" points="108.42 69.04 108.42 111.33 106.5 110.42 106.5 68.14 108.42 69.04"/><polygon class="cls-1" points="154.21 69.04 123.47 90.54 109.37 80.01 125.05 69.04 154.21 69.04"/><polygon class="cls-1" points="134.99 111.33 133.92 111.33 109.38 92.99 109.38 92.19 134.99 111.33"/><polygon class="cls-1" points="137.13 111.33 136.06 111.33 109.38 91.39 109.38 90.59 137.13 111.33"/><polygon class="cls-1" points="139.27 111.33 138.2 111.33 109.38 89.8 109.38 89 139.27 111.33"/><polygon class="cls-1" points="141.41 111.33 140.34 111.33 109.38 88.2 109.38 87.4 141.41 111.33"/><polygon class="cls-1" points="143.55 111.33 142.48 111.33 109.38 86.6 109.38 85.8 143.55 111.33"/><polygon class="cls-1" points="147.83 111.33 146.76 111.33 109.38 83.4 109.38 82.6 147.83 111.33"/><polygon class="cls-1" points="145.69 111.33 144.62 111.33 109.38 85 109.38 84.2 145.69 111.33"/><polygon class="cls-1" points="44.2 106.04 37.12 111.33 60.62 111.33 60.62 100.96 51 100.96 48.36 102.93 44.2 106.04"/><polygon class="cls-1" points="20.03 111.33 21.1 111.33 60.62 81.8 60.62 81 20.03 111.33"/><polygon class="cls-1" points="81.76 59.58 81.76 101.86 83.68 100.96 83.68 58.67 81.76 59.58"/><polygon class="cls-1" points="78.88 60.93 78.88 103.21 80.8 102.31 80.8 60.02 78.88 60.93"/><polygon class="cls-1" points="76 62.28 76 104.56 77.92 103.66 77.92 61.38 77.05 61.78 76 62.28"/><polygon class="cls-1" points="73.11 63.63 73.11 105.92 75.03 105.01 75.03 62.73 73.11 63.63"/><polygon class="cls-1" points="70.23 64.99 70.23 107.27 72.15 106.37 72.15 64.08 70.23 64.99"/><polygon class="cls-1" points="67.34 66.34 67.34 108.62 69.27 107.72 69.27 65.44 67.34 66.34"/><polygon class="cls-1" points="64.46 67.69 64.46 109.97 66.38 109.07 66.38 66.79 64.46 67.69"/><polygon class="cls-1" points="61.58 69.04 61.58 111.33 63.5 110.42 63.5 68.14 61.58 69.04"/><polygon class="cls-1" points="15.79 69.04 46.53 90.54 60.63 80.01 44.95 69.04 15.79 69.04"/><polygon class="cls-1" points="35.01 111.33 36.08 111.33 60.62 92.99 60.62 92.19 35.01 111.33"/><polygon class="cls-1" points="32.87 111.33 33.94 111.33 60.62 91.39 60.62 90.59 32.87 111.33"/><polygon class="cls-1" points="30.73 111.33 31.8 111.33 60.62 89.8 60.62 89 30.73 111.33"/><polygon class="cls-1" points="28.59 111.33 29.66 111.33 60.62 88.2 60.62 87.4 28.59 111.33"/><polygon class="cls-1" points="26.45 111.33 27.52 111.33 60.62 86.6 60.62 85.8 26.45 111.33"/><polygon class="cls-1" points="22.17 111.33 23.24 111.33 60.62 83.4 60.62 82.6 22.17 111.33"/><polygon class="cls-1" points="24.31 111.33 25.38 111.33 60.62 85 60.62 84.2 24.31 111.33"/></svg>