<svg id="Warstwa_9" data-name="Warstwa 9" xmlns="http://www.w3.org/2000/svg" viewBox="0 0 1235.14 1237.4"><defs><style>.cls-1{fill:#fff;}</style></defs><polygon class="cls-1" points="718.27 1113.06 847.1 1237.4 419.64 1237.4 419.64 993.66 594.56 993.66 642.62 1040.05 718.27 1113.06"/><polyline class="cls-1" points="1158.02 1237.39 1138.56 1237.39 419.64 543.56 419.64 524.78"/><polygon class="cls-1" points="34.97 21.2 34.97 1014.86 0 993.66 0 0 34.97 21.2"/><polygon class="cls-1" points="87.42 52.98 87.42 1046.65 52.45 1025.45 52.45 31.79 87.42 52.98"/><polygon class="cls-1" points="139.88 84.77 139.88 1078.43 104.91 1057.25 104.91 63.59 120.65 73.12 139.88 84.77"/><polygon class="cls-1" points="192.34 116.57 192.34 1110.23 157.37 1089.04 157.37 95.38 192.34 116.57"/><polygon class="cls-1" points="244.79 148.36 244.79 1142.02 209.82 1120.83 209.82 127.16 244.79 148.36"/><polygon class="cls-1" points="297.25 180.15 297.25 1173.81 262.27 1152.62 262.27 158.96 297.25 180.15"/><polygon class="cls-1" points="349.7 211.95 349.7 1205.61 314.73 1184.41 314.73 190.75 349.7 211.95"/><polygon class="cls-1" points="402.15 243.74 402.15 1237.4 367.19 1216.2 367.19 222.54 402.15 243.74"/><polygon class="cls-1" points="1235.14 243.74 675.95 748.89 419.48 501.4 704.69 243.74 1235.14 243.74"/><polyline class="cls-1" points="885.55 1237.39 866.09 1237.39 419.64 806.53 419.64 787.75"/><polyline class="cls-1" points="924.47 1237.39 905.01 1237.39 419.64 768.96 419.64 750.18"/><polyline class="cls-1" points="963.39 1237.39 943.94 1237.39 419.64 731.39 419.64 712.62"/><polyline class="cls-1" points="1002.32 1237.39 982.86 1237.39 419.64 693.83 419.64 675.04"/><polyline class="cls-1" points="1041.25 1237.39 1021.79 1237.39 419.64 656.25 419.64 637.48"/><polyline class="cls-1" points="1119.1 1237.39 1099.64 1237.39 419.64 581.13 419.64 562.35"/><polyline class="cls-1" points="1080.17 1237.39 1060.71 1237.39 419.64 618.7 419.64 599.91"/></svg>