<svg id="Warstwa_1" data-name="Warstwa 1" xmlns="http://www.w3.org/2000/svg" viewBox="0 0 250 100"><defs><style>.cls-1{fill:#fff;}</style></defs><polygon class="cls-1" points="188.5 86.86 199.09 96 163.94 96 163.94 78.08 178.33 78.08 182.28 81.49 188.5 86.86"/><polygon class="cls-1" points="224.66 96 223.06 96 163.94 44.97 163.94 43.59 224.66 96"/><polygon class="cls-1" points="132.31 6.56 132.31 79.63 129.44 78.08 129.44 5 132.31 6.56"/><polygon class="cls-1" points="136.63 8.9 136.63 81.97 133.75 80.41 133.75 7.34 136.63 8.9"/><polygon class="cls-1" points="140.94 11.23 140.94 84.31 138.06 82.75 138.06 9.68 139.36 10.38 140.94 11.23"/><polygon class="cls-1" points="145.25 13.57 145.25 86.65 142.38 85.09 142.38 12.01 145.25 13.57"/><polygon class="cls-1" points="149.56 15.91 149.56 88.99 146.69 87.43 146.69 14.35 149.56 15.91"/><polygon class="cls-1" points="153.88 18.25 153.88 91.32 151 89.77 151 16.69 153.88 18.25"/><polygon class="cls-1" points="158.19 20.59 158.19 93.66 155.32 92.1 155.32 19.03 158.19 20.59"/><polygon class="cls-1" points="162.5 22.93 162.5 96 159.63 94.44 159.63 21.37 162.5 22.93"/><polygon class="cls-1" points="231 22.93 185.02 60.08 163.93 41.87 187.38 22.93 231 22.93"/><polygon class="cls-1" points="202.25 96 200.65 96 163.94 64.31 163.94 62.93 202.25 96"/><polygon class="cls-1" points="205.45 96 203.85 96 163.94 61.55 163.94 60.17 205.45 96"/><polygon class="cls-1" points="208.66 96 207.06 96 163.94 58.79 163.94 57.41 208.66 96"/><polygon class="cls-1" points="211.86 96 210.26 96 163.94 56.02 163.94 54.64 211.86 96"/><polygon class="cls-1" points="215.06 96 213.46 96 163.94 53.26 163.94 51.88 215.06 96"/><polygon class="cls-1" points="221.46 96 219.86 96 163.94 47.74 163.94 46.36 221.46 96"/><polygon class="cls-1" points="218.26 96 216.66 96 163.94 50.5 163.94 49.12 218.26 96"/><polygon class="cls-1" points="61.44 86.86 50.84 96 85.99 96 85.99 78.08 71.61 78.08 67.66 81.49 61.44 86.86"/><polygon class="cls-1" points="25.28 96 26.88 96 85.99 44.97 85.99 43.59 25.28 96"/><polygon class="cls-1" points="117.62 6.56 117.62 79.63 120.5 78.08 120.5 5 117.62 6.56"/><polygon class="cls-1" points="113.31 8.9 113.31 81.97 116.19 80.41 116.19 7.34 113.31 8.9"/><polygon class="cls-1" points="109 11.23 109 84.31 111.87 82.75 111.87 9.68 110.58 10.38 109 11.23"/><polygon class="cls-1" points="104.68 13.57 104.68 86.65 107.56 85.09 107.56 12.01 104.68 13.57"/><polygon class="cls-1" points="100.37 15.91 100.37 88.99 103.25 87.43 103.25 14.35 100.37 15.91"/><polygon class="cls-1" points="96.06 18.25 96.06 91.32 98.93 89.77 98.93 16.69 96.06 18.25"/><polygon class="cls-1" points="91.74 20.59 91.74 93.66 94.62 92.1 94.62 19.03 91.74 20.59"/><polygon class="cls-1" points="87.43 22.93 87.43 96 90.31 94.44 90.31 21.37 87.43 22.93"/><polygon class="cls-1" points="18.93 22.93 64.92 60.08 86.01 41.87 62.55 22.93 18.93 22.93"/><polygon class="cls-1" points="47.68 96 49.28 96 85.99 64.31 85.99 62.93 47.68 96"/><polygon class="cls-1" points="44.48 96 46.08 96 85.99 61.55 85.99 60.17 44.48 96"/><polygon class="cls-1" points="41.28 96 42.88 96 85.99 58.79 85.99 57.41 41.28 96"/><polygon class="cls-1" points="38.08 96 39.68 96 85.99 56.02 85.99 54.64 38.08 96"/><polygon class="cls-1" points="34.88 96 36.48 96 85.99 53.26 85.99 51.88 34.88 96"/><polygon class="cls-1" points="28.48 96 30.08 96 85.99 47.74 85.99 46.36 28.48 96"/><polygon class="cls-1" points="31.68 96 33.28 96 85.99 50.5 85.99 49.12 31.68 96"/></svg>